# xmcd
#
# Track frame offsets:
#	150
#	15726
#	32152
#	49224
#	63626
#	78612
#	96405
#	112662
#	128563
#	146266
#	160249
#
# Disc length: 2310 seconds
#
# Revision: 0
# Processed by: cddbd v1.5.2PL0 Copyright (c) Steve Scherf et al.
# Submitted via: EasyCDDAExtractor 4.6.9.1
#
DISCID=8d09040b
DTITLE=Toby Keith - Big Dog Daddy
DYEAR=2007
DGENRE=Country
TTITLE0=01 - High Maintenance Woman
TTITLE1=02 - Love Me If You Can
TTITLE2=03 - White Rose
TTITLE3=04 - Get My Drink On
TTITLE4=05 - Wouldn't Wanna Be Ya
TTITLE5=06 - Big Dog Daddy
TTITLE6=07 - I Know She Hung The Moon
TTITLE7=08 - Pump Jack
TTITLE8=09 - Burnin' Moonlight
TTITLE9=10 - Walk It Off
TTITLE10=11 - Hit It
EXTD=
EXTT0=
EXTT1=
EXTT2=
EXTT3=
EXTT4=
EXTT5=
EXTT6=
EXTT7=
EXTT8=
EXTT9=
EXTT10=
PLAYORDER=
